<svg width="38" height="35" viewBox="0 0 38 35" fill="none" xmlns="http://www.w3.org/2000/svg">
<rect y="3" width="32" height="32" rx="8" fill="#FEC814"/>
<path d="M15.739 26.161C14.5737 26.161 13.554 25.9157 12.68 25.425C11.8213 24.9343 11.162 24.2443 10.702 23.355C10.242 22.4503 10.012 21.4 10.012 20.204C10.012 19.008 10.2497 17.95 10.725 17.03C11.2157 16.11 11.898 15.397 12.772 14.891C13.646 14.385 14.6657 14.132 15.831 14.132C16.6437 14.132 17.4257 14.27 18.177 14.546C18.9283 14.8067 19.534 15.167 19.994 15.627L19.281 17.306C18.1923 16.4473 17.096 16.018 15.992 16.018C14.8727 16.018 13.9987 16.386 13.37 17.122C12.7413 17.8427 12.427 18.8623 12.427 20.181C12.427 21.4997 12.7413 22.5193 13.37 23.24C13.9987 23.9453 14.8727 24.298 15.992 24.298C17.1267 24.298 18.223 23.8687 19.281 23.01L19.994 24.689C19.5033 25.149 18.8747 25.5093 18.108 25.77C17.3567 26.0307 16.567 26.161 15.739 26.161ZM24.8421 23.24V26H22.0821V23.24H24.8421Z" fill="black"/>
</svg>
