<svg width="68" height="71" viewBox="0 0 68 71" fill="none" xmlns="http://www.w3.org/2000/svg">
<path fill-rule="evenodd" clip-rule="evenodd" d="M33.972 5.91663C18.332 5.91663 5.66699 19.17 5.66699 35.5C5.66699 51.83 18.332 65.0833 33.972 65.0833C49.6403 65.0833 62.3337 51.83 62.3337 35.5C62.3337 19.17 49.6403 5.91663 33.972 5.91663ZM34.0003 59.1666C21.477 59.1666 11.3337 48.5758 11.3337 35.5C11.3337 22.4241 21.477 11.8333 34.0003 11.8333C46.5237 11.8333 56.667 22.4241 56.667 35.5C56.667 48.5758 46.5237 59.1666 34.0003 59.1666ZM48.167 28.1041C48.167 30.5595 46.2687 32.5416 43.917 32.5416C41.5653 32.5416 39.667 30.5595 39.667 28.1041C39.667 25.6487 41.5653 23.6666 43.917 23.6666C46.2687 23.6666 48.167 25.6487 48.167 28.1041ZM24.0837 32.5416C26.4353 32.5416 28.3337 30.5595 28.3337 28.1041C28.3337 25.6487 26.4353 23.6666 24.0837 23.6666C21.732 23.6666 19.8337 25.6487 19.8337 28.1041C19.8337 30.5595 21.732 32.5416 24.0837 32.5416ZM47.4589 43.6354C44.7672 48.487 39.7522 51.7708 34.0006 51.7708C28.2489 51.7708 23.2339 48.487 20.5422 43.6354C20.0039 42.6591 20.7122 41.4166 21.7889 41.4166H46.2122C47.3172 41.4166 47.9972 42.6591 47.4589 43.6354Z" fill="#6D7D8B"/>
</svg>
