<svg width="87" height="91" viewBox="0 0 87 91" fill="none" xmlns="http://www.w3.org/2000/svg">
<path fill-rule="evenodd" clip-rule="evenodd" d="M39.8387 30.3334C39.8387 36.6275 35.0175 41.7084 29 41.7084C22.9825 41.7084 18.125 36.6275 18.125 30.3334C18.125 24.0392 22.9825 18.9584 29 18.9584C35.0175 18.9584 39.8387 24.0392 39.8387 30.3334ZM68.8388 30.3334C68.8388 36.6275 64.0175 41.7084 58 41.7084C51.9825 41.7084 47.125 36.6275 47.125 30.3334C47.125 24.0392 51.9825 18.9584 58 18.9584C64.0175 18.9584 68.8388 24.0392 68.8388 30.3334ZM29 49.2917C20.5538 49.2917 3.625 53.728 3.625 62.5625V68.25C3.625 70.3355 5.25625 72.0417 7.25 72.0417H50.75C52.7438 72.0417 54.375 70.3355 54.375 68.25V62.5625C54.375 53.728 37.4463 49.2917 29 49.2917ZM54.4832 49.4813C55.7519 49.3675 56.9482 49.2917 57.9994 49.2917C66.4457 49.2917 83.3744 53.728 83.3744 62.5625V68.25C83.3744 70.3355 81.7432 72.0417 79.7494 72.0417H60.9719C61.3707 70.8663 61.6244 69.5771 61.6244 68.25V62.5625C61.6244 56.9888 58.7607 52.78 54.6282 49.633C54.6172 49.6215 54.6062 49.6065 54.5943 49.5902C54.5667 49.5526 54.5337 49.5077 54.4832 49.4813Z" fill="#EB5757"/>
</svg>
