<svg width="66" height="69" viewBox="0 0 66 69" fill="none" xmlns="http://www.w3.org/2000/svg">
<path fill-rule="evenodd" clip-rule="evenodd" d="M40.3975 5.53651C42.8725 8.00901 45.0725 10.769 46.9975 13.7303C52.03 21.5215 55 30.8365 55 40.8703C55 53.5778 45.155 63.8703 33 63.8703C20.845 63.8703 11 53.5778 11 40.8703C11 33.5678 12.87 26.7253 16.1425 20.8603C16.5825 20.0265 17.05 19.2503 17.545 18.474C18.205 17.4103 19.7175 17.784 20.02 18.9915C20.185 19.624 20.295 19.969 20.57 20.544C22.0825 24.3678 25.5475 27.0415 29.7825 27.0415C35.4475 27.0415 39.16 22.2403 39.16 16.3178C39.16 13.1265 38.61 9.56151 38.0875 6.85901C37.8125 5.47901 39.435 4.55901 40.3975 5.53651ZM23.3479 46.2178C23.3479 51.2203 27.3079 55.2453 32.2029 55.2453C39.4904 55.2453 45.4029 49.064 45.3754 41.4453C45.3754 38.369 45.0454 35.3215 44.4129 32.389C44.1929 31.3253 42.9279 30.9803 42.1579 31.7278C39.2704 34.574 35.1179 36.3853 31.0754 37.2478C26.2354 38.2828 23.3479 41.5603 23.3479 46.2178Z" fill="#FFBB00"/>
</svg>
